<svg width="220" height="220" viewBox="0 0 220 220" fill="none" xmlns="http://www.w3.org/2000/svg">
  <circle cx="110" cy="110" r="96" fill="#F8F1E6"/>
  <path d="M76 82C76 61 91 46 110 46C129 46 144 61 144 82V103H76V82Z" fill="#C9971E"/>
  <path d="M94 52L122 74L148 54" stroke="#8B623B" stroke-width="6" stroke-linecap="round" stroke-linejoin="round"/>
  <path d="M87 94C87 77 97 67 110 67C123 67 133 77 133 94V121C133 138 123 149 110 149C97 149 87 138 87 121V94Z" fill="#F3D0A8" stroke="#8B623B" stroke-width="6"/>
  <path d="M98 104C101 100 105 98 110 98C115 98 119 100 122 104" stroke="#8B623B" stroke-width="5" stroke-linecap="round"/>
  <path d="M96 123C101 129 106 132 110 132C114 132 119 129 124 123" stroke="#8B623B" stroke-width="5" stroke-linecap="round"/>
  <circle cx="99" cy="113" r="4" fill="#8B623B"/>
  <circle cx="121" cy="113" r="4" fill="#8B623B"/>
  <path d="M78 171C88 160 99 155 110 155C121 155 132 160 142 171" stroke="#8B623B" stroke-width="6" stroke-linecap="round"/>
</svg>
